<svg width="111" height="111" viewBox="0 0 111 111" fill="none" xmlns="http://www.w3.org/2000/svg">
<g filter="url(#filter0_d_8204_2256)">
<rect x="8" y="4" width="95" height="95" rx="47.5" fill="#FB6603"/>
<rect x="9.5" y="5.5" width="92" height="92" rx="46" stroke="#FB6603" stroke-width="3"/>
</g>
<g clip-path="url(#clip0_8204_2256)">
<path d="M55.4984 57.643C60.1917 57.643 63.9958 53.7332 63.9958 48.9103V35.5402C63.9958 30.7173 60.1917 26.8074 55.4984 26.8074C50.805 26.8074 47.001 30.7173 47.001 35.5402V48.9103C47.001 53.7336 50.8055 57.643 55.4984 57.643Z" fill="white"/>
<path d="M70.4764 48.9103C70.4764 48.0614 69.8067 47.3736 68.9812 47.3736C68.1557 47.3736 67.4859 48.0614 67.4859 48.9103C67.4859 55.7024 62.1087 61.229 55.4992 61.229C48.8896 61.229 43.512 55.7029 43.512 48.9103C43.512 48.0614 42.8423 47.3736 42.0167 47.3736C41.1912 47.3736 40.5215 48.0614 40.5215 48.9103C40.5215 56.8788 46.4445 63.4508 54.0035 64.2246V73.1193H49.2947C48.4691 73.1193 47.7994 73.8071 47.7994 74.656C47.7994 75.5048 48.4691 76.1926 49.2947 76.1926H61.7033C62.5292 76.1926 63.1985 75.5048 63.1985 74.656C63.1985 73.8071 62.5292 73.1193 61.7033 73.1193H56.9944V64.2246C64.5534 63.4508 70.4769 56.8788 70.4769 48.9103H70.4764Z" fill="white"/>
</g>
<rect x="41.0215" y="27.3074" width="28.955" height="48.3852" stroke="#FB6603"/>
<g clip-path="url(#clip1_8204_2256)">
<path d="M55.4984 57.643C60.1917 57.643 63.9958 53.7332 63.9958 48.9103V35.5402C63.9958 30.7173 60.1917 26.8074 55.4984 26.8074C50.805 26.8074 47.001 30.7173 47.001 35.5402V48.9103C47.001 53.7336 50.8055 57.643 55.4984 57.643Z" fill="white"/>
<path d="M70.4764 48.9103C70.4764 48.0614 69.8067 47.3736 68.9812 47.3736C68.1557 47.3736 67.4859 48.0614 67.4859 48.9103C67.4859 55.7024 62.1087 61.229 55.4992 61.229C48.8896 61.229 43.512 55.7029 43.512 48.9103C43.512 48.0614 42.8423 47.3736 42.0167 47.3736C41.1912 47.3736 40.5215 48.0614 40.5215 48.9103C40.5215 56.8788 46.4445 63.4508 54.0035 64.2246V73.1193H49.2947C48.4691 73.1193 47.7994 73.8071 47.7994 74.656C47.7994 75.5048 48.4691 76.1926 49.2947 76.1926H61.7033C62.5292 76.1926 63.1985 75.5048 63.1985 74.656C63.1985 73.8071 62.5292 73.1193 61.7033 73.1193H56.9944V64.2246C64.5534 63.4508 70.4769 56.8788 70.4769 48.9103H70.4764Z" fill="white"/>
</g>
<rect x="41.0215" y="27.3074" width="28.955" height="48.3852" stroke="#FB6603"/>
<defs>
<filter id="filter0_d_8204_2256" x="0" y="0" width="111" height="111" filterUnits="userSpaceOnUse" color-interpolation-filters="sRGB">
<feFlood flood-opacity="0" result="BackgroundImageFix"/>
<feColorMatrix in="SourceAlpha" type="matrix" values="0 0 0 0 0 0 0 0 0 0 0 0 0 0 0 0 0 0 127 0" result="hardAlpha"/>
<feOffset dy="4"/>
<feGaussianBlur stdDeviation="4"/>
<feComposite in2="hardAlpha" operator="out"/>
<feColorMatrix type="matrix" values="0 0 0 0 0 0 0 0 0 0 0 0 0 0 0 0 0 0 0.25 0"/>
<feBlend mode="normal" in2="BackgroundImageFix" result="effect1_dropShadow_8204_2256"/>
<feBlend mode="normal" in="SourceGraphic" in2="effect1_dropShadow_8204_2256" result="shape"/>
</filter>
<clipPath id="clip0_8204_2256">
<rect x="40.5215" y="26.8074" width="29.955" height="49.3852" fill="white"/>
</clipPath>
<clipPath id="clip1_8204_2256">
<rect x="40.5215" y="26.8074" width="29.955" height="49.3852" fill="white"/>
</clipPath>
</defs>
</svg>
