<svg width="111" height="111" viewBox="0 0 111 111" fill="none" xmlns="http://www.w3.org/2000/svg">
<g filter="url(#filter0_d_8222_1695)">
<rect x="8" y="4" width="95" height="95" rx="47.5" fill="#14AE5C"/>
<rect x="9.5" y="5.5" width="92" height="92" rx="46" stroke="#14AE5C" stroke-width="3"/>
</g>
<path d="M56.0639 57.0289C60.9672 57.0289 64.9414 53.1011 64.9414 48.2561V34.8247C64.9414 29.9797 60.9672 26.0519 56.0639 26.0519C51.1607 26.0519 47.1865 29.9797 47.1865 34.8247V48.2561C47.1865 53.1016 51.1612 57.0289 56.0639 57.0289Z" fill="white"/>
<path d="M71.7115 48.2564C71.7115 47.4036 71.0119 46.7126 70.1494 46.7126C69.287 46.7126 68.5873 47.4036 68.5873 48.2564C68.5873 55.0797 62.9696 60.6316 56.0645 60.6316C49.1594 60.6316 43.5412 55.0801 43.5412 48.2564C43.5412 47.4036 42.8416 46.7126 41.9791 46.7126C41.1167 46.7126 40.417 47.4036 40.417 48.2564C40.417 56.2614 46.6049 62.8636 54.5019 63.6409V72.5764H49.5825C48.7201 72.5764 48.0204 73.2674 48.0204 74.1201C48.0204 74.9729 48.7201 75.6639 49.5825 75.6639H62.546C63.4089 75.6639 64.1081 74.9729 64.1081 74.1201C64.1081 73.2674 63.4089 72.5764 62.546 72.5764H57.6266V63.6409C65.5237 62.8636 71.712 56.2614 71.712 48.2564H71.7115Z" fill="white"/>
<path d="M74.7373 58.3433C74.7373 58.0106 74.8659 57.6774 75.123 57.4233C78.7864 53.8031 78.7864 47.9125 75.123 44.2927C74.6092 43.7849 74.6092 42.961 75.123 42.4533C75.6367 41.9451 76.4705 41.9451 76.9843 42.4533C81.6739 47.0876 81.6739 54.6284 76.9843 59.2632C76.4705 59.7713 75.6367 59.7713 75.123 59.2632C74.8659 59.0091 74.7373 58.6764 74.7373 58.3433Z" fill="white"/>
<path d="M79.7432 63.2966C79.7432 62.9639 79.8717 62.6308 80.1288 62.3767C83.2452 59.297 84.9613 55.2065 84.9613 50.8578C84.9613 46.5091 83.2452 42.4186 80.1288 39.3389C79.6151 38.8312 79.6151 38.0073 80.1288 37.4995C80.6426 36.9914 81.4764 36.9914 81.9901 37.4995C85.6036 41.0705 87.5935 45.8145 87.5935 50.8578C87.5935 55.9011 85.6036 60.6451 81.9901 64.2161C81.4764 64.7242 80.6426 64.7242 80.1288 64.2161C79.8717 63.962 79.7432 63.6293 79.7432 63.2961V63.2966Z" fill="white"/>
<path d="M37.1196 43.3727C37.1196 43.7054 36.9911 44.0385 36.734 44.2926C33.0705 47.9129 33.0705 53.8035 36.734 57.4233C37.2477 57.931 37.2477 58.755 36.734 59.2627C36.2202 59.7709 35.3864 59.7709 34.8727 59.2627C30.1831 54.6284 30.1831 47.0876 34.8727 42.4528C35.3864 41.9446 36.2202 41.9446 36.734 42.4528C36.9911 42.7069 37.1196 43.0396 37.1196 43.3727Z" fill="white"/>
<path d="M32.1111 38.4195C32.1111 38.7521 31.9825 39.0853 31.7254 39.3394C28.609 42.419 26.8929 46.5095 26.8929 50.8583C26.8929 55.207 28.609 59.2975 31.7254 62.3771C32.2392 62.8849 32.2392 63.7088 31.7254 64.2165C31.2116 64.7247 30.3779 64.7247 29.8641 64.2165C26.2506 60.6451 24.2607 55.9011 24.2607 50.8578C24.2607 45.8145 26.2506 41.0705 29.8641 37.4995C30.3779 36.9914 31.2116 36.9914 31.7254 37.4995C31.9825 37.7536 32.1111 38.0863 32.1111 38.4195Z" fill="white"/>
<defs>
<filter id="filter0_d_8222_1695" x="0" y="0" width="111" height="111" filterUnits="userSpaceOnUse" color-interpolation-filters="sRGB">
<feFlood flood-opacity="0" result="BackgroundImageFix"/>
<feColorMatrix in="SourceAlpha" type="matrix" values="0 0 0 0 0 0 0 0 0 0 0 0 0 0 0 0 0 0 127 0" result="hardAlpha"/>
<feOffset dy="4"/>
<feGaussianBlur stdDeviation="4"/>
<feComposite in2="hardAlpha" operator="out"/>
<feColorMatrix type="matrix" values="0 0 0 0 0 0 0 0 0 0 0 0 0 0 0 0 0 0 0.25 0"/>
<feBlend mode="normal" in2="BackgroundImageFix" result="effect1_dropShadow_8222_1695"/>
<feBlend mode="normal" in="SourceGraphic" in2="effect1_dropShadow_8222_1695" result="shape"/>
</filter>
</defs>
</svg>
