<svg width="111" height="111" viewBox="0 0 111 111" fill="none" xmlns="http://www.w3.org/2000/svg">
<g filter="url(#filter0_d_8222_1726)">
<rect x="8" y="4" width="95" height="95" rx="47.5" fill="#EC221F"/>
<rect x="9.5" y="5.5" width="92" height="92" rx="46" stroke="#EC221F" stroke-width="3"/>
</g>
<g clip-path="url(#clip0_8222_1726)">
<path d="M65.533 36.9004V35.237C65.533 30.3095 61.4709 26.3134 56.4494 26.3134C53.9334 26.3134 51.673 27.3176 50.0204 28.9285C48.3792 30.5394 47.3662 32.7784 47.3662 35.237V48.8889C47.3662 50.5732 47.8353 52.1321 48.6562 53.4708L65.533 36.8999V36.9004Z" fill="white"/>
<path d="M56.4499 57.8023C61.4715 57.8023 65.5331 53.8164 65.5331 48.8893V45.2648L79.4229 31.6347C80.0477 31.0221 80.0477 30.028 79.4229 29.4158C78.7985 28.8026 77.7859 28.8026 77.1616 29.4158L33.2876 72.4677C32.6632 73.0804 32.6632 74.074 33.2876 74.6867C33.6001 74.9933 34.009 75.1466 34.4185 75.1466C34.828 75.1466 35.2375 74.9933 35.5499 74.6867L48.1559 62.3169C50.1474 63.5088 52.4163 64.2915 54.8513 64.5293V73.6095H49.8189C48.9346 73.6095 48.2198 74.3104 48.2198 75.1786C48.2198 76.0468 48.9346 76.7477 49.8189 76.7477H63.0815C63.9662 76.7477 64.6805 76.0468 64.6805 75.1786C64.6805 74.3104 63.9662 73.6095 63.0815 73.6095H58.0495V64.5293C66.1305 63.7341 72.4633 57.0284 72.4633 48.8893C72.4633 48.0212 71.749 47.3202 70.8642 47.3202C69.9795 47.3202 69.2652 48.0212 69.2652 48.8893C69.2652 55.8254 63.5189 61.464 56.4504 61.464C54.298 61.464 52.2781 60.9345 50.5001 60.0171L53.3133 57.257C54.2894 57.6091 55.3441 57.8028 56.4509 57.8028L56.4499 57.8023Z" fill="white"/>
<path d="M45.9589 56.1074C44.4981 54.0673 43.6347 51.5775 43.6347 48.8889C43.6347 48.0208 42.9094 47.3198 42.0356 47.3198C41.1617 47.3198 40.4365 48.0208 40.4365 48.8889C40.4365 52.4354 41.6413 55.7204 43.6668 58.3565L45.9594 56.1074H45.9589Z" fill="white"/>
</g>
<defs>
<filter id="filter0_d_8222_1726" x="0" y="0" width="111" height="111" filterUnits="userSpaceOnUse" color-interpolation-filters="sRGB">
<feFlood flood-opacity="0" result="BackgroundImageFix"/>
<feColorMatrix in="SourceAlpha" type="matrix" values="0 0 0 0 0 0 0 0 0 0 0 0 0 0 0 0 0 0 127 0" result="hardAlpha"/>
<feOffset dy="4"/>
<feGaussianBlur stdDeviation="4"/>
<feComposite in2="hardAlpha" operator="out"/>
<feColorMatrix type="matrix" values="0 0 0 0 0 0 0 0 0 0 0 0 0 0 0 0 0 0 0.25 0"/>
<feBlend mode="normal" in2="BackgroundImageFix" result="effect1_dropShadow_8222_1726"/>
<feBlend mode="normal" in="SourceGraphic" in2="effect1_dropShadow_8222_1726" result="shape"/>
</filter>
<clipPath id="clip0_8222_1726">
<rect width="47.0721" height="50.4344" fill="white" transform="translate(32.8193 26.3134)"/>
</clipPath>
</defs>
</svg>
