<svg width="77" height="77" viewBox="0 0 77 77" fill="none" xmlns="http://www.w3.org/2000/svg">
<circle cx="38.5" cy="38.4999" r="38.5" fill="#14AE5C"/>
<g clip-path="url(#clip0_388_1030)">
<path fill-rule="evenodd" clip-rule="evenodd" d="M59.7814 53.034C59.7814 57.0172 56.4287 60.1992 52.4346 59.9864C44.2917 59.5519 35.4028 55.5868 28.2062 48.4217C21.005 41.2656 17.0154 32.4166 16.5787 24.31C16.3649 20.3359 19.5629 17 23.5661 17H28.0925C29.1933 17 29.8439 17.9279 30.0941 18.9916L32.0638 27.5011C32.314 28.5874 31.9819 29.728 31.1813 30.5065L29.1115 32.5298C27.6285 33.9737 27.3919 36.2685 28.5519 37.9795C29.8484 39.8986 31.3815 41.7589 33.1419 43.5152C34.9024 45.2668 36.7767 46.7922 38.7055 48.0822C40.4296 49.2319 42.7314 48.9965 44.1826 47.5255L46.216 45.4615C46.9985 44.6648 48.1448 44.3344 49.2366 44.5834L57.7889 46.5433C58.8625 46.7922 59.7905 47.4395 59.7905 48.5348V53.0431L59.7814 53.034Z" fill="white"/>
</g>
<defs>
<clipPath id="clip0_388_1030">
<rect width="43.2117" height="43" fill="white" transform="translate(16.5696 17)"/>
</clipPath>
</defs>
</svg>
