<svg width="77" height="77" viewBox="0 0 77 77" fill="none" xmlns="http://www.w3.org/2000/svg">
<circle cx="38.5" cy="38.4999" r="38.5" fill="#C00F0C"/>
<g clip-path="url(#clip0_388_1044)">
<path fill-rule="evenodd" clip-rule="evenodd" d="M59.7814 53.034C59.7814 57.0172 56.4287 60.1992 52.4346 59.9864C44.2917 59.5519 35.4028 55.5868 28.2062 48.4217C21.005 41.2656 17.0154 32.4166 16.5787 24.31C16.3649 20.3359 19.5629 17 23.5661 17H28.0925C29.1933 17 29.8439 17.9279 30.0941 18.9916L32.0638 27.5011C32.314 28.5874 31.9819 29.728 31.1813 30.5065L29.1115 32.5298C27.6285 33.9737 27.3919 36.2685 28.5519 37.9795C29.8484 39.8986 31.3815 41.7589 33.1419 43.5152C34.9024 45.2668 36.7767 46.7922 38.7055 48.0822C40.4296 49.2319 42.7314 48.9965 44.1826 47.5255L46.216 45.4615C46.9985 44.6648 48.1448 44.3344 49.2366 44.5834L57.7889 46.5433C58.8625 46.7922 59.7905 47.4395 59.7905 48.5348V53.0431L59.7814 53.034Z" fill="white"/>
<path d="M51.9682 18.7727V31.7727C51.9682 32.7518 51.1946 33.5455 50.2404 33.5455H48.5125C47.5582 33.5455 46.7847 32.7518 46.7847 31.7727V18.7727C46.7847 17.7937 47.5582 17 48.5125 17H50.2404C51.1946 17 51.9682 17.7937 51.9682 18.7727ZM57.7277 17H55.9999C55.0456 17 54.272 17.7937 54.272 18.7727V31.7727C54.272 32.7518 55.0456 33.5455 55.9999 33.5455H57.7277C58.682 33.5455 59.4556 32.7518 59.4556 31.7727V18.7727C59.4556 17.7937 58.682 17 57.7277 17Z" fill="white"/>
</g>
<defs>
<clipPath id="clip0_388_1044">
<rect width="43.2117" height="43" fill="white" transform="translate(16.5696 17)"/>
</clipPath>
</defs>
</svg>
