<svg width="41" height="41" viewBox="0 0 41 41" fill="none" xmlns="http://www.w3.org/2000/svg">
<rect x="0.000244141" width="40.9999" height="40.9999" rx="20.4999" fill="#838383"/>
<path d="M27.7605 12.0668C28.2487 11.5785 29.0327 11.5827 29.5251 12.0629C30.0309 12.556 30.0077 13.3433 29.532 13.8314L29.5281 13.8344L22.5671 20.7963L29.5281 27.7601C30.0163 28.2484 30.0121 29.0323 29.532 29.5248C29.0389 30.0306 28.2514 30.0075 27.7634 29.5316L27.7605 29.5277L20.7986 22.5648L13.8386 29.5277C13.3504 30.016 12.5654 30.0118 12.073 29.5316C11.5674 29.0385 11.5906 28.2511 12.0662 27.7631L12.0701 27.7601L19.031 20.7963L12.0701 13.8344C11.5839 13.3479 11.5839 12.5532 12.0701 12.0668C12.5565 11.5803 13.3522 11.5803 13.8386 12.0668L20.7986 19.0287L27.7605 12.0668Z" fill="white" stroke="white" stroke-width="0.75"/>
</svg>
