<svg width="22" height="22" viewBox="0 0 22 22" fill="none" xmlns="http://www.w3.org/2000/svg">
<rect x="0.5" y="0.5" width="21" height="21" rx="10.5" stroke="#B1B1B1"/>
<g clip-path="url(#clip0_8054_2991)">
<path d="M16.3405 15.5595C16.555 15.774 16.555 16.1205 16.3405 16.3405C16.126 16.5605 15.7795 16.555 15.5595 16.3405L11 11.781L6.44053 16.3405C6.22603 16.555 5.87953 16.555 5.65953 16.3405C5.43953 16.126 5.44503 15.7795 5.65953 15.5595L10.219 11L5.65953 6.44053C5.44503 6.22603 5.44503 5.87403 5.65953 5.65953C5.87403 5.44503 6.22603 5.44503 6.44053 5.65953L11 10.219L15.5595 5.65953C15.774 5.44503 16.1205 5.44503 16.3405 5.65953C16.5605 5.87403 16.555 6.22053 16.3405 6.44053L11.781 11L16.3405 15.5595Z" fill="#B2B2B2"/>
</g>
<defs>
<clipPath id="clip0_8054_2991">
<rect width="11" height="11" fill="white" transform="translate(5.5 5.5)"/>
</clipPath>
</defs>
</svg>
